{"title":"Formula 1 2013 - Bahra - Ted's Notebook - Sky Show","uid":8396570,"size":38659674,"categoryP":"video","categoryS":"tv_shows","magnet":"?xt=urn:btih:4436e7614c3f300fd491591da25442c2d2ddf029&amp;dn=Formula+1+2013+-+Bahra+-+Ted%27s+Notebook+-+Sky+Show&amp;tr=udp%3A%2F%2Ftracker.openbittorrent.com%3A80&amp;tr=udp%3A%2F%2Fopen.demonii.com%3A1337&amp;tr=udp%3A%2F%2Ftracker.coppersurfer.tk%3A6969&amp;tr=udp%3A%2F%2Fexodus.desync.com%3A6969","seeders":1,"leechers":0,"uploader":"IAMH67","files":5,"time":1366587764,"description":"This is the Ted's notebook part of the post race show from Sky. I have posted this as most people requesting the post race show want to watch this part.\n\nRuntime : About 8 Minutes\n\n\nTechnical Information :\n\n\nVideo\n\nFormat                         : AVC\nFormat/Info                    : Advanced Video Codec\nFormat profile                 : &lt;a class=&quot;__cf_email__&quot; href=&quot;/cdn-cgi/l/email-protection&quot; data-cfemail=&quot;783519111638344b5648&quot;&gt;[email&amp;#160;protected]&lt;/a&gt;&lt;script cf-hash='f9e31' type=&quot;text/javascript&quot;&gt;\n/* &lt;![CDATA[ */!function(){try{var t=&quot;currentScript&quot;in document?document.currentScript:function(){for(var t=document.getElementsByTagName(&quot;script&quot;),e=t.length;e--;)if(t[e].getAttribute(&quot;cf-hash&quot;))return t[e]}();if(t&amp;&amp;t.previousSibling){var e,r,n,i,c=t.previousSibling,a=c.getAttribute(&quot;data-cfemail&quot;);if(a){for(e=&quot;&quot;,r=parseInt(a.substr(0,2),16),n=2;a.length-n;n+=2)i=parseInt(a.substr(n,2),16)^r,e+=String.fromCharCode(i);e=document.createTextNode(e),c.parentNode.replaceChild(e,c)}}}catch(u){}}();/* ]]&gt; */&lt;/script&gt;\nFormat settings, CABAC         : Yes\nFormat settings, ReFrames      : 3 frames\nFormat settings, GOP           : M=1, N=50\nCodec ID                       : 7\nDuration                       : 7mn 9s\nBit rate                       : 581 Kbps\nWidth                          : 640 pixels\nHeight                         : 360 pixels\nDisplay aspect ratio           : 16:9\nFrame rate mode                : Constant\nFrame rate                     : 25.000 fps\nColor space                    : YUV\nChroma subsampling             : 4:2:0\nBit depth                      : 8 bits\nScan type                      : Progressive\nBits/(Pixel*Frame)             : 0.101\nStream size                    : 29.8 MiB (81%)\n\nAudio\n\nFormat                         : AAC\nFormat/Info                    : Advanced Audio Codec\nFormat profile                 : LC\nCodec ID                       : 10\nDuration                       : 7mn 9s\nBit rate                       : 129 Kbps\nChannel(s)                     : 2 channels\nChannel positions              : Front: L R\nSampling rate                  : 44.1 KHz\nCompression mode               : Lossy\nStream size                    : 6.59 MiB (18%)\n\n\nScreens :\n &lt;a href=&quot;\nhttp://i.imgur.com/tspa0wb.jpg&quot; rel=&quot;nofollow&quot; target=&quot;_NEW&quot;&gt;\nhttp://i.imgur.com/tspa0wb.jpg&lt;/a&gt;\n &lt;a href=&quot;\nhttp://i.imgur.com/lmA63g1.jpg&quot; rel=&quot;nofollow&quot; target=&quot;_NEW&quot;&gt;\nhttp://i.imgur.com/lmA63g1.jpg&lt;/a&gt;\n &lt;a href=&quot;\nhttp://i.imgur.com/a6JAoM9.jpg&quot; rel=&quot;nofollow&quot; target=&quot;_NEW&quot;&gt;\nhttp://i.imgur.com/a6JAoM9.jpg&lt;/a&gt;\n","torrent":{"xt":"urn:btih:4436e7614c3f300fd491591da25442c2d2ddf029","amp;dn":"Formula+1+2013+-+Bahra+-+Ted%27s+Notebook+-+Sky+Show","amp;tr":["udp%3A%2F%2Ftracker.openbittorrent.com%3A80","udp%3A%2F%2Fopen.demonii.com%3A1337","udp%3A%2F%2Ftracker.coppersurfer.tk%3A6969","udp%3A%2F%2Fexodus.desync.com%3A6969"],"infoHash":"4436e7614c3f300fd491591da25442c2d2ddf029","infoHashBuffer":{"type":"Buffer","data":[68,54,231,97,76,63,48,15,212,145,89,29,162,84,66,194,210,221,240,41]},"announce":[],"urlList":[]}}